<svg width="30" height="33" viewBox="0 0 30 33" fill="none" xmlns="http://www.w3.org/2000/svg">
<path d="M18.5276 15.875H15.5164C15.7629 12.1393 18.7509 9.13813 22.5 8.8914V11.9026C20.4185 12.1342 18.7592 13.7935 18.5276 15.875ZM10.5098 15.875H7.50792C7.76681 7.71501 14.34 1.14181 22.5 0.882918V3.88481C15.9921 4.14056 10.7656 9.36707 10.5098 15.875Z" fill="black" stroke="black" stroke-width="0.999993"/>
<path d="M11.4724 16.875H14.4836C14.2371 20.6107 11.2491 23.6119 7.5 23.8586V20.8474C9.58155 20.6158 11.2408 18.9565 11.4724 16.875ZM19.4902 16.875H22.4921C22.2332 25.035 15.66 31.6082 7.5 31.8671V28.8652C14.0079 28.6094 19.2344 23.3829 19.4902 16.875Z" fill="black" stroke="black" stroke-width="0.999993"/>
</svg>
