<svg width="24" height="24" viewBox="0 0 24 24" fill="none" xmlns="http://www.w3.org/2000/svg">
<g clip-path="url(#clip0_1513_4185)">
<path d="M20.6224 10.8887C14.9644 10.8887 10.3804 15.5391 10.3804 21.2791H15.4984C15.4984 18.4121 17.7904 16.0869 20.6164 16.0869V10.8887H20.6224Z" stroke="black" stroke-width="1.5"/>
<path d="M20.622 0.595703C9.36002 0.595703 0.144043 9.86006 0.144043 21.2792H5.26205C5.26205 12.6722 12.138 5.69657 20.622 5.69657V0.595703Z" stroke="black" stroke-width="1.5"/>
<path d="M0.144043 31.6697C5.80204 31.6697 10.386 27.0193 10.386 21.2793H5.26804C5.26804 24.1463 2.97604 26.4715 0.150044 26.4715V31.6697H0.144043Z" stroke="black" stroke-width="1.5"/>
<path d="M0.144043 41.9628C11.406 41.9628 20.622 32.6984 20.622 21.2793H15.504C15.504 29.8863 8.62802 36.8619 0.144043 36.8619V41.9628Z" stroke="black" stroke-width="1.5"/>
</g>
</svg>
